<?xml version="1.0" encoding="UTF-8"?>
<svg id="Capa_2" data-name="Capa 2" xmlns="http://www.w3.org/2000/svg" viewBox="0 0 682.96 203.44">
  <defs>
    <style>
      .cls-1 {
        fill: #e63b81;
      }
    </style>
  </defs>
  <g id="Capa_1-2" data-name="Capa 1">
    <path class="cls-1" d="M675.73,115.29l4.65-6.2c-.52-.26-1.29-.26-2.07-.26-4.4,0-10.86,2.84-15.25,2.84h-.52c2.58-1.81,5.17-3.36,7.76-4.91-1.03-1.03-2.84-1.29-4.65-1.29-4.14,0-9.56,1.55-13.96,1.55h-1.03c0-1.03.26-2.33.52-3.62-7.5,3.88-12.93,4.91-17.84,4.91-1.29,0-2.59-.26-3.62-.26,3.36-1.55,4.4-2.07,7.5-4.91-1.81-.78-3.88-1.04-6.2-1.04-1.55,0-3.36.26-5.17.26h-.26c2.33-13.96,3.62-27.66,3.88-40.58,0-16.29-.26-32.05-2.07-47.57-.26-2.33-1.55-3.62-3.88-4.39-.77-.26-1.55-.26-2.33-.26-1.81,0-3.88.52-6.46,1.29-3.88,1.55-6.98,3.1-11.12,5.95-4.39,2.84-7.76,5.69-11.37,9.57-2.48,2.66-4.85,5.25-7.12,7.8.6-1.84.92-3.78.92-5.73,0-6.46-3.36-12.67-10.6-16.03-2.59-1.03-4.65-1.55-5.95-1.55-1.55,0-2.59.52-3.36.78,2.07,4.39,2.84,2.07,7.76,4.14,5.69,2.84,8.27,7.76,8.27,12.67,0,6.72-4.91,13.44-12.92,13.96-4.65-.52-6.72-.52-6.72-.52,0-.26.78-.26,2.33-.26-12.41-.26-11.12.52-12.92-2.33,3.62,0,6.72,0,9.31.26,1.55.78,3.36,1.55,5.17,1.81,1.29,0,2.33-.26,2.58-.26,7.5-.52,11.89-6.46,11.89-12.41,0-4.65-2.33-9.31-7.5-11.63-2.07-.78-3.36-.78-4.91-.78h-4.14c-6.2,2.07,1.55,1.55-12.67,2.33.26-.78.78-1.55,1.55-2.33h3.36c-1.03,0-2.07-.26-3.1-.26,3.36-3.88,8.01-6.46,13.7-6.98-15.25.78-33.61,1.03-48.34,3.36-6.2.78-10.6,2.07-15.51,5.43-10.6.26-21.46.78-31.8,3.62,3.88,1.03,7.75,2.07,11.63,3.62-14.99,1.29-31.02.26-45.24,4.14,0,2.07.26,4.14.26,5.95-1.87.31-3.74.7-5.59,1.09-.3-7.42-.8-14.75-1.65-22.03-.26-2.33-1.55-3.62-3.88-4.39-.78-.26-1.55-.26-2.33-.26-1.81,0-3.88.52-6.46,1.29-3.88,1.55-6.98,3.1-11.11,5.95-4.39,2.84-7.76,5.69-11.37,9.57-22.23,23.78-35.67,42.65-48.86,65.66-6.46,11.12-13.18,22.75-16.8,32.83,6.72-8.27,10.86-16.29,15.25-23.78,15.25-25.59,29.99-47.31,54.54-73.67,2.58-2.59,4.65-4.4,7.5-6.46,2.84-1.81,4.91-2.84,7.5-3.62,1.81-.78,3.1-1.03,4.14-1.03.52,0,1.29.26,1.81.26,1.55.52,2.33,1.29,2.59,2.84.54,6.22,1,12.46,1.33,18.79-.1.03-.2.05-.29.08.1.13.2.23.31.36.28,5.63.46,11.34.46,17.22,0,4.39,0,9.31-.26,13.96-2.33-11.89-1.55-26.11-2.84-39.03-.26-3.1-.78-6.46-1.03-9.82-.26-1.29-.77-2.07-2.07-2.33-.52-.26-1.03-.26-1.55-.26-1.03,0-2.07.26-3.62.78-2.07.78-3.88,1.55-6.2,3.36-2.58,1.55-4.39,3.1-6.46,5.17-21.83,23.78-54.95,74.56-79.17,116.96-13.5-10.17-27.16-19.7-41-28.53.47-.49.95-1,1.42-1.47,8.2,5.38,14.61,9.74,18.97,12.56,3.88,2.84,6.98,4.65,9.3,5.95,2.07,1.29,3.62,2.33,4.91,2.59,1.03.26,2.33.52,3.88.52-1.81-1.81-4.65-4.65-9.05-8.53-4.39-3.62-9.05-7.24-13.7-10.6-4.65-3.36-8.01-5.94-10.08-7.5,15.77-16.8,33.09-39.81,51.44-68.76-.26-.77-.78-1.81-1.29-2.58-.26-.52-.52-1.03-.78-1.55l.52-.52c3.88-4.91,6.46-8.53,8.01-10.6,1.29-2.07,2.07-3.62,2.07-4.4s-.26-1.29-1.03-2.07h-.52c-1.81,0-3.1.52-4.39,1.55-1.29,1.03-2.33,2.07-3.36,3.36-.78,1.03-1.29,1.81-2.07,2.59-1.29-.26-2.33-.52-3.36-.52-2.58,0-4.65.78-5.95,2.07s-2.84,3.1-4.14,5.17c-.78,1.03-1.55,2.07-2.59,3.36h-2.07c-1.29,0-2.33,0-3.62.26-1.29.26-2.58.77-3.36,1.55l-2.07-.52c-.78-.52-1.81-.78-2.59-.78-.26,0-.78,0-1.03.26-3.88,3.88-7.5,8.01-10.6,12.41-2.84,4.14-6.2,8.01-9.56,11.38l-3.88,1.55c.52-1.29.78-2.84,1.03-4.4,1.29-6.2,2.59-13.18,3.88-20.68,1.29-7.5,1.81-14.47,1.81-20.94,0-2.07,0-3.88-.26-5.69-1.29-.77-2.58-1.55-3.62-2.58.26-1.81.26-3.36.26-4.4,0-1.29-.26-2.07-.52-2.58-.26-.26-.78-.78-1.55-1.04q0-.26-.26-.26c-.78-.26-1.29-.26-1.55-.26-.52,0-.78,0-1.04.26-.26.26-.26.78-.52,1.29,0,.26,0,.77-.26,1.29-1.55-.26-2.84-.52-3.62-.52-1.03,0-1.81.26-2.07,1.03-.26.78-.52,1.55-.52,2.84,0,.78,0,1.81-.26,2.58-.78,0-1.55,0-2.84.26-1.29.26-2.33.52-3.1,1.29-.26,0-.78,0-1.29-.26h-2.07c-.52,0-1.03,0-1.29.26-1.29,3.36-2.07,6.72-2.33,10.08-.26,3.36-1.03,6.72-2.33,10.6-1.03,1.29-1.81,2.07-2.59,2.58-.78.78-1.29,1.29-1.55,2.07-.52.78-1.03,1.81-1.55,3.62-.78,1.81-1.55,4.65-2.33,8.53-1.03,3.88-2.33,9.31-4.14,16.29-.52,2.84-1.29,5.69-2.07,9.05-1.81,6.46-2.84,12.93-3.36,19.39,1.29-.26,2.07-.52,2.84-1.29s1.29-1.55,1.81-2.59l.52-.52c-.57,7.01-2.4,13.59-5.26,19.67-1.98.35-3.83.5-5.6.5-1.29,0-2.58-.26-3.62-.26,3.36-1.55,4.39-2.07,7.5-4.91-1.81-.78-3.88-1.04-6.2-1.04-1.55,0-3.36.26-5.17.26h-.26c2.33-13.96,3.62-27.66,3.88-40.58,0-16.29-.26-32.05-2.07-47.57-.26-2.33-1.55-3.62-3.88-4.39-.77-.26-1.55-.26-2.33-.26-1.81,0-3.88.52-6.46,1.29-3.88,1.55-6.98,3.1-11.12,5.95-4.39,2.84-7.76,5.69-11.37,9.57-22.23,23.78-35.67,42.65-48.86,65.66-6.46,11.12-13.18,22.75-16.8,32.83,6.72-8.27,10.86-16.29,15.25-23.78,15.25-25.59,29.99-47.31,54.54-73.67,2.59-2.59,4.65-4.4,7.5-6.46,2.84-1.81,4.91-2.84,7.5-3.62,1.81-.78,3.1-1.03,4.14-1.03.52,0,1.29.26,1.81.26,1.55.52,2.33,1.29,2.59,2.84,1.03,11.89,1.81,23.78,1.81,36.45,0,4.39,0,9.31-.26,13.96-2.33-11.89-1.55-26.11-2.84-39.03-.26-3.1-.78-6.46-1.03-9.82-.26-1.29-.78-2.07-2.07-2.33-.52-.26-1.03-.26-1.55-.26-1.04,0-2.07.26-3.62.78-2.07.78-3.88,1.55-6.21,3.36-2.58,1.55-4.39,3.1-6.46,5.17-21.33,23.24-53.45,72.27-77.51,114.06-7.1-3.8-21.55-9.98-37.78-15.05,7.24-1.03,14.48-4.39,21.2-7.5,25.33-11.37,39.81-33.35,39.81-55.06,0-14.74-6.72-29.21-21.2-40.07-12.15-8.79-25.33-11.89-38.26-11.89-21.97,0-42.14,9.05-52.48,12.93-.26,1.55-.52,3.1-1.03,4.65-16.8,4.65-19.65,5.95-19.65,8.01,0,.52.26,1.04.26,1.55,1.29,1.03,2.84,1.55,4.14,1.55,2.59,0,5.43-1.29,8.27-1.81,1.55,1.55,3.36,2.58,5.17,3.1-.52,2.84-1.03,5.69-2.33,9.05-6.98,6.2-3.36-2.33-14.99,35.42-1.55,5.43-3.1,10.6-3.36,16.28,2.58-.26,3.36-1.03,5.43-3.36-1.81,8.27-4.14,16.03-9.82,21.46l2.33,3.88c-1.55,7.76-5.43,12.92-5.43,19.9v1.81c1.81-.78,3.62-1.55,5.17-2.07-1.29,5.95-5.17,8.53-5.17,13.7,4.14,1.55,5.17,1.81,5.17,2.33,0,.78-.77,1.55-1.55,4.14,1.55.26,3.36.52,5.17.78,6.46-6.72,12.67-20.68,18.1-34.64h2.33l-1.03,2.58c-.78,2.33-1.55,3.88-1.55,5.69,0,1.29.26,2.33.77,3.62,3.36-3.36,4.65-8.01,6.72-11.89h.78v1.55c0,1.03.26,2.59.78,2.84,0,.78-.26,1.81-.26,2.59,0,.52.26.78.26,1.03,3.62,2.07,8.01,1.29,12.67,3.36,5.17,5.43-1.81,2.33,28.18,12.15,4.65,1.29,9.05,2.84,13.96,3.1-.52-2.07-1.81-2.84-3.1-4.14,6.72,1.55,13.7,3.62,19.13,8.27.84-.42,1.72-.81,2.7-1.09-9.9,18.17-17.4,33.63-20.54,42.97h2.07c2.33-4.14,12.15-8.53,13.96-12.41,2.07-1.03,8.79-2.84,11.12-3.88,7.57-13.91,3.61-9.4,9.9-21.91,1.27.26,2.55.45,3.8.45h1.03c-.65-1.3-1.49-2.44-2.35-3.68.19-.13.37-.26.55-.39,5.12,1.62,8.87,4.36,13.95,4.84,1.04-2.84,1.04-3.88,1.81-3.88.52,0,1.81.78,4.65,1.55.26-1.29.26-2.58.26-3.88-4.26-2.44-8.75-4.68-13.35-6.81,2.28-4.26,5.78-10.27,8.18-14.64,8.79,3.36,16.8,5.69,28.69,5.69h1.81c3.62-.26,7.24-.26,10.86-.26v2.07c0,.77.52.77,1.29.77,1.03,0,2.84-.52,3.88-.52v.52c0,3.1,2.84,3.36,4.91,4.65-.52,4.14-2.84,10.34-2.84,14.48,0,2.84,1.03,4.91,4.39,4.91h.26c-.52,3.1-2.07,7.5-2.07,10.6,0,1.55.52,2.84,1.55,3.36,2.84-1.81,3.88-3.62,4.14-5.17,2.84-7.76,4.65-14.99,6.46-22.23,1.81-1.55,3.62-3.1,5.17-4.65,1.55-4.14,2.58-8.27,3.88-12.41,1.81-.52,3.62-1.03,5.69-1.55,3.94-.88,7.15-1.21,11.33-2.85-.13,1.21-.21,2.42-.21,3.63,0,1.29,0,2.84.26,4.14.77-.52,1.55-1.03,2.33-1.81.78-.52,1.55-1.04,2.33-1.55-.26,2.84-1.04,5.17-1.81,7.24-1.04,2.33-1.55,4.91-1.55,7.5v1.55c1.81.26,3.62.52,5.17.77-.26,1.81-.52,3.36-.52,4.91,1.29-.26,2.84-.78,4.39-1.03h.52c3.36-7.24,6.72-16.54,10.08-27.66,3.36,1.81,6.72,3.62,10.08,4.91,0-1.29-.26-2.58-.77-3.62-.78-.78-1.29-1.81-2.07-2.84-.26-.26-.52-.52-.78-.77,10.6,4.91,19.39,11.63,26.63,20.16,1.81-.26,3.62-.52,5.43-.52,4.14,2.33,8.01,4.91,11.89,7.76,2.12,1.57,4.33,2.99,6.58,4.35-9.13,16.93-16.02,31.27-18.99,40.11h2.07c2.33-4.14,12.15-8.53,13.96-12.41,2.07-1.03,8.79-2.84,11.11-3.88,7.11-13.06,4.06-9.88,8.86-19.8,1.02.8,2.03,1.62,3.04,2.48,4.14,3.62,8.53,6.72,13.44,9.05,1.29-1.55,2.33-2.59,2.84-3.36l1.03-1.03h.26q0,.26.26.26c2.59.77,4.65,1.55,5.95,2.33,1.29,1.03,2.33,2.07,2.84,3.36,1.29-1.55,2.07-3.36,2.84-5.17-2.33-2.84-5.17-4.91-8.53-6.2l-.26-.26c-4.93-4.16-9.89-8.21-14.86-12.19.43-.5.84-.85,1.42-.99,2.07-4.14,6.46-11.63,9.31-16.8,8.79,3.36,16.8,5.69,28.69,5.69h1.81c3.62-.26,7.24-.26,10.86-.26v2.07c0,.77.52.77,1.29.77,1.03,0,2.84-.52,3.88-.52v.52c0,3.1,2.84,3.36,4.91,4.65-.52,4.14-2.84,10.34-2.84,14.48,0,2.84,1.03,4.91,4.39,4.91h.26c-.52,3.1-2.07,7.5-2.07,10.6,0,1.55.52,2.84,1.55,3.36,2.84-1.81,3.88-3.62,4.14-5.17,2.84-7.76,4.65-14.99,6.46-22.23,1.81-1.55,3.62-3.1,5.17-4.65,1.55-4.14,2.59-8.27,3.88-12.41,1.81-.52,3.62-1.03,5.69-1.55,4.65-1.03,8.27-1.29,13.7-3.88-.26-1.55-1.04-2.07-2.59-2.07-1.03,0-2.33.26-3.62.52-3.88.52-7.76.77-11.63,1.29.26-.78.26-1.55.52-2.07,13.14-1.5,26.57-3.71,41.14-7.56-.79,4.66-1.5,9.34-2.11,14.02l3.88,3.1c-1.03,5.69-2.07,11.89-2.07,17.84,0,1.55,0,3.1.26,4.65v.52c0,1.81,1.03,2.59,2.58,3.1,4.14-4.14,3.36-9.56,4.65-14.99,9.31-4.91,8.53-15.25,10.6-24.56,3.62-3.1,6.98-5.17,8.79-9.57,2.07-1.03,4.91-.26,5.95-2.84,5.69-14.73,8.53-29.73,14.73-43.69,6.72-8.53,4.39-1.29,14.48-22.75,6.72-1.29,15.51-1.03,32.31-2.58,6.46.52,8.79.52,9.05.52h.26s-3.1-.26-4.91-1.03c2.07-.26,4.39-.52,6.72-.78,2.69-.13,5.1-.75,7.2-1.75-13.3,15.99-23.12,30.64-32.79,47.5-6.46,11.12-13.18,22.75-16.8,32.83,6.72-8.27,10.86-16.29,15.25-23.78,15.25-25.59,29.99-47.31,54.54-73.67,2.59-2.59,4.65-4.4,7.5-6.46,2.84-1.81,4.91-2.84,7.5-3.62,1.81-.78,3.1-1.03,4.14-1.03.52,0,1.29.26,1.81.26,1.55.52,2.33,1.29,2.58,2.84,1.03,11.89,1.81,23.78,1.81,36.45,0,4.39,0,9.31-.26,13.96-2.33-11.89-1.55-26.11-2.84-39.03-.26-3.1-.78-6.46-1.03-9.82-.26-1.29-.78-2.07-2.07-2.33-.52-.26-1.03-.26-1.55-.26-1.04,0-2.07.26-3.62.78-2.07.78-3.88,1.55-6.2,3.36-2.59,1.55-4.39,3.1-6.46,5.17-34.64,37.74-97.71,143.47-108.57,175.78h2.07c2.33-4.14,12.15-8.53,13.96-12.41,2.07-1.03,8.79-2.84,11.12-3.88,8.01-14.73,3.1-8.79,11.12-24.3,5.95-3.62,5.95-6.72,8.01-7.24,2.07-4.14,6.46-11.63,9.31-16.8,8.79,3.36,16.8,5.69,28.69,5.69h1.81c3.62-.26,7.24-.26,10.86-.26v2.07c0,.77.52.77,1.29.77,1.03,0,2.84-.52,3.88-.52v.52c0,3.1,2.84,3.36,4.91,4.65-.52,4.14-2.84,10.34-2.84,14.48,0,2.84,1.03,4.91,4.4,4.91h.26c-.52,3.1-2.07,7.5-2.07,10.6,0,1.55.52,2.84,1.55,3.36,2.84-1.81,3.88-3.62,4.13-5.17,2.84-7.76,4.65-14.99,6.46-22.23,1.81-1.55,3.62-3.1,5.17-4.65,1.55-4.14,2.58-8.27,3.88-12.41,1.81-.52,3.62-1.03,5.69-1.55,4.65-1.03,8.27-1.29,13.7-3.88-.26-1.55-1.03-2.07-2.58-2.07-1.03,0-2.33.26-3.62.52-3.88.52-7.76.77-11.63,1.29.26-.78.26-1.55.52-2.07,18.1-2.07,36.71-5.43,58.16-12.67,2.07-1.81,3.88-3.88,5.69-5.69-2.33,0-4.65.52-7.24.78M136.23,63.85c0,19.13-12.92,40.07-41.62,54.54-4.91,2.33-10.08,4.14-13.96,8.01-2.59-.78-5.17-1.55-8.01-2.33,40.58-11.63,61.52-35.42,61.52-58.94,0-14.22-7.76-28.43-23.78-39.81,16.54,7.76,25.85,22.49,25.85,38.52M34.12,116.33c-.52,0-1.29.26-1.55.26s-.26,0-.26-.52c0-1.03,1.55-5.43,5.95-19.13,2.59-8.01,4.14-17.06,8.53-24.04-3.36,14.48-8.01,28.95-12.67,43.43M40.84,115.55c4.91-12.41,8.27-26.11,11.89-38.78,2.59-9.05,4.65-19.9,5.43-29.99.26.26.52.26.77.52,4.4-.26,12.93-2.58,19.65-2.58,3.1,0,5.95.52,7.5,2.07,6.72,5.43,14.22,6.72,17.58,13.18.52,1.29,1.03,2.58,1.03,3.88,0,3.1-1.29,6.98-3.88,13.18.52.26,1.04.26,1.55.26,2.07,0,3.62-1.29,4.91-2.07-3.62,8.27-11.37,14.73-21.97,16.29-1.29,5.17-1.29,6.2-19.9,12.15-6.98,2.33-13.7,4.14-20.16,7.24,3.1,1.03,6.46,1.55,9.57,2.33-4.91,1.29-9.57,2.07-13.96,2.33M83.75,133.9c-6.46-2.33-13.96-3.62-19.9-7.24,17.58,4.39,34.64,10.6,51.7,16.54.95.36,1.85.71,2.75.99-.28.49-.55.97-.83,1.46-11.34-4.31-22.89-8.1-33.71-11.75M186.38,137.01h-6.98c2.59-.78,5.17-1.29,7.24-1.81,0,.78,0,1.29-.26,1.81M188.19,108.83c-3.36,0-5.95-1.03-9.31-1.03-1.29,0-2.33.26-3.88.52-1.55.77-4.14,3.88-5.69,5.43-2.58.77-6.46,4.39-9.05,6.46-1.81,0-3.1-.52-4.39-.52-1.55,0-3.1.52-5.95,2.84,4.91-9.3,9.57-18.61,15.77-28.43,2.33-2.58,4.91-5.17,7.5-7.76,2.84-6.46,6.98-8.27,11.89-15.51.52,11.89.26,18.87,1.03,30.76,0,3.1,1.81,4.91,3.1,7.24h-1.03ZM202.92,43.43c-.78.26-1.55.78-2.07,1.03,1.55-1.55,3.1-3.36,4.65-5.17-.77,1.29-1.81,2.59-2.58,4.14M282.28,114.53h.01s.01,0,.02,0c-.01,0-.02,0-.03,0M291.59,93.32c-3.36,4.14-6.98,8.27-10.6,12.41l-1.55-1.03c3.88-4.14,7.76-8.01,12.15-11.38M275.83,54.29c-.78,4.39-1.81,9.05-2.84,13.7l-2.33,2.33c1.29-5.69,2.84-11.12,5.17-16.03M233.43,133.13c-1.03,0-2.33.26-3.62.52-3.88.52-7.76.77-11.63,1.29.26-.78.26-1.55.52-2.07,5.24-.6,10.53-1.33,15.91-2.2-.21.84-.38,1.69-.53,2.53-.21-.03-.4-.07-.65-.07M390.34,137.01h-6.98c2.59-.78,5.17-1.29,7.24-1.81,0,.78,0,1.29-.26,1.81M392.15,108.83c-3.36,0-5.95-1.03-9.31-1.03-1.29,0-2.33.26-3.88.52-1.55.77-4.14,3.88-5.69,5.43-2.59.77-6.46,4.39-9.05,6.46-1.81,0-3.1-.52-4.4-.52-1.55,0-3.1.52-5.95,2.84,4.91-9.3,9.57-18.61,15.77-28.43,2.33-2.58,4.91-5.17,7.5-7.76,2.84-6.46,6.98-8.27,11.89-15.51.52,11.89.26,18.87,1.03,30.76,0,3.1,1.81,4.91,3.1,7.24h-1.03ZM406.88,43.43c-.78.26-1.55.78-2.07,1.03,1.55-1.55,3.1-3.36,4.65-5.17-.78,1.29-1.81,2.59-2.58,4.14M466.08,111.67c.12-.08.23-.15.35-.23-.02.08-.03.15-.05.23h-.3ZM467.71,105.53c-3.9.28-8.6,1.49-12.49,1.49h-1.03c0-1.03.26-2.33.52-3.62-7.5,3.88-12.92,4.91-17.84,4.91-1.29,0-2.59-.26-3.62-.26,3.36-1.55,4.4-2.07,7.5-4.91-1.81-.78-3.88-1.04-6.2-1.04-1.55,0-3.36.26-5.17.26h-.26c2.33-13.96,3.62-27.66,3.88-40.58,0-6.62-.05-13.16-.22-19.63,14.98-1.46,35.25-2.14,55.54-2.6-8.46,21.4-15.52,43.5-20.6,65.98M586.8,137.01h-6.98c2.59-.78,5.17-1.29,7.24-1.81,0,.78,0,1.29-.26,1.81M588.61,108.83c-3.36,0-5.95-1.03-9.31-1.03-1.29,0-2.33.26-3.88.52-1.55.77-4.14,3.88-5.69,5.43-2.58.77-6.46,4.39-9.05,6.46-1.81,0-3.1-.52-4.4-.52-1.55,0-3.1.52-5.95,2.84,4.91-9.3,9.56-18.61,15.77-28.43,2.33-2.58,4.91-5.17,7.5-7.76,2.84-6.46,6.98-8.27,11.89-15.51.52,11.89.26,18.87,1.03,30.76,0,3.1,1.81,4.91,3.1,7.24h-1.03ZM603.35,43.43c-.78.26-1.55.78-2.07,1.03,1.55-1.55,3.1-3.36,4.65-5.17-.77,1.29-1.81,2.59-2.58,4.14"/>
  </g>
</svg>