<?xml version="1.0" encoding="UTF-8"?>
<svg id="Capa_2" data-name="Capa 2" xmlns="http://www.w3.org/2000/svg" viewBox="0 0 505.44 231">
  <defs>
    <style>
      .cls-1 {
        fill: #e63b81;
      }
    </style>
  </defs>
  <g id="Capa_1-2" data-name="Capa 1">
    <g>
      <path class="cls-1" d="M462.88,15.87c-3.3-1.32-5.95-1.99-7.59-1.99-.03,0-.06,0-.09,0,.01,0,.02,0,.03,0-.13,0-.26.01-.39.02-.09,0-.19,0-.28.01-19.45.91-45.49-.99-64.15,1.95-7.94.99-13.57,2.65-19.84,6.97-13.59.32-27.48.99-40.72,4.61,4.96,1.34,9.95,2.65,14.9,4.64-12.45,1.08-25.44.9-38.01,2,.36-.49.7-.93,1-1.33,1.64-2.65,2.63-4.64,2.63-5.63s-.32-1.66-1.32-2.65h-.67c-2.31,0-3.97.67-5.63,1.98-1.64,1.34-2.98,2.65-4.29,4.31-.99,1.32-1.66,2.31-2.65,3.3-1.66-.32-2.98-.65-4.29-.65-3.32,0-5.95.99-7.61,2.63-1.66,1.66-3.64,3.97-5.31,6.62-.99,1.34-1.98,2.65-3.3,4.31h-2.65c-1.66,0-2.98,0-4.64.32-1.64.32-3.3.99-4.29,1.98l-2.65-.67c-.99-.65-2.31-.99-3.3-.99-.35,0-.99,0-1.34.35-4.96,4.96-9.6,10.24-13.57,15.87-3.65,5.31-7.94,10.27-12.25,14.56l-4.96,1.98c.67-1.64.99-3.62,1.34-5.61,1.64-7.96,3.3-16.89,4.96-26.49,1.66-9.6,2.31-18.53,2.31-26.81,0-2.65,0-4.96-.32-7.27-1.66-.99-3.32-1.99-4.64-3.32.32-2.31.32-4.29.32-5.63,0-1.64-.32-2.63-.65-3.3-.35-.32-.99-.99-1.98-1.32q0-.35-.35-.35c-.99-.32-1.64-.32-1.98-.32-.65,0-.99,0-1.32.32-.32.35-.32.99-.67,1.66,0,.32,0,.99-.32,1.66-1.98-.35-3.65-.67-4.64-.67-1.32,0-2.31.32-2.65,1.32-.32.99-.65,1.98-.65,3.65,0,.99,0,2.33-.35,3.32-.99,0-1.98,0-3.65.32-1.64.32-2.98.67-3.97,1.66-.32,0-.99,0-1.64-.35h-2.65c-.67,0-1.32,0-1.66.35-1.66,4.29-2.65,8.61-2.98,12.9-.32,4.29-1.32,8.61-2.98,13.57-1.32,1.66-2.31,2.65-3.3,3.32-.99.99-1.66,1.64-2.01,2.63-.65.99-1.32,2.33-1.98,4.64-.99,2.33-1.98,5.95-2.98,10.91-.68,2.59-1.46,5.71-2.37,9.36-2.85-14.75-11.3-28.74-26.03-39.79-15.57-11.26-32.44-15.23-48.98-15.23-28.12,0-53.94,11.58-67.19,16.54-.32,1.98-.67,3.97-1.32,5.95-21.53,5.98-25.17,7.61-25.17,10.27,0,.67.35,1.32.35,1.98,1.66,1.32,3.65,1.98,5.28,1.98,3.32,0,6.97-1.66,10.59-2.31,1.98,1.98,4.31,3.3,6.62,3.97-.65,3.65-1.32,7.27-2.98,11.58-8.93,7.94-4.29-2.98-19.2,45.34-1.98,6.95-3.97,13.57-4.29,20.86,3.3-.35,4.29-1.34,6.95-4.32-2.31,10.59-5.31,20.53-12.58,27.48l2.98,4.96c-1.98,9.92-6.94,16.54-6.94,25.47v2.33c2.31-.99,4.64-1.98,6.62-2.65-1.66,7.61-6.62,10.91-6.62,17.54,5.28,1.98,6.62,2.33,6.62,2.98,0,.99-.99,1.98-1.98,5.31,1.98.32,4.29.67,6.6.99,8.28-8.61,16.22-26.49,23.17-44.35h3l-1.34,3.3c-.99,2.98-1.98,4.96-1.98,7.29,0,1.66.32,2.98.99,4.64,4.31-4.32,5.95-10.27,8.61-15.23h.99v1.98c0,1.32.32,3.3.99,3.64,0,.99-.32,2.31-.32,3.3,0,.67.32.99.32,1.32,4.64,2.65,10.27,1.66,16.22,4.31,6.62,6.95-2.31,2.98,36.06,15.55,5.98,1.66,11.61,3.65,17.88,3.97-.67-2.65-2.31-3.65-3.97-5.28,8.61,1.98,17.54,4.64,24.48,10.59,1.34-.67,2.65-1.34,4.32-1.66,8.26,1.66,16.87,6.94,25.15,6.94h1.32c-.99-1.98-2.31-3.65-3.62-5.63,7.27,1.98,12.23,5.98,19.17,6.62,1.34-3.65,1.34-4.96,2.33-4.96.67,0,2.31.99,5.95,1.99.32-1.66.32-3.3.32-4.96-2.87-1.64-5.81-3.22-8.81-4.75,3.36-8.15,6.73-17.86,10.11-29.01,4.29,2.31,8.61,4.64,12.9,6.28,0-1.64-.32-3.3-.99-4.62-.99-.99-1.64-2.33-2.63-3.64-.35-.32-.67-.67-.99-.99,13.57,6.28,24.8,14.88,34.08,25.82,2.31-.35,4.64-.67,6.95-.67,5.31,2.98,10.27,6.27,15.23,9.92,7.61,5.63,15.87,10.27,24.83,13.57-.67-1.64-1.34-3.3-1.98-4.96-.99-1.64-1.66-2.98-2.33-4.64,4.96,3,9.27,6.3,13.57,9.94,5.31,4.64,10.94,8.61,17.21,11.58,1.66-1.98,2.98-3.32,3.65-4.32l1.32-1.32h.35q0,.32.32.32c3.32.99,5.95,1.98,7.61,2.98,1.66,1.34,2.98,2.65,3.65,4.32,1.64-1.98,2.65-4.32,3.65-6.62-1.66-2.02-3.52-3.72-5.58-5.13,5.14-5.33,4.21-15.8,5.86-22.67,11.91-6.28,10.91-19.52,13.57-31.45,4.64-3.97,8.93-6.6,11.24-12.23,2.65-1.34,6.3-.35,7.61-3.64,7.29-18.87,10.94-38.07,18.87-55.93,8.61-10.94,5.63-1.66,18.53-29.12,8.61-1.66,19.86-1.34,41.37-3.32l5.63-.67c2.65-.32,5.63-.65,8.61-.99,13.89-.65,21.85-11.58,21.85-22.82,0-8.28-4.32-16.22-13.59-20.53M83.73,132.71c-8.95,2.98-17.56,5.28-25.82,9.25,3.97,1.34,8.26,1.98,12.25,2.98-6.3,1.66-12.25,2.65-17.88,3,6.3-15.9,10.59-33.43,15.23-49.65,3.3-11.58,5.95-25.49,6.94-38.39.32.32.67.32.99.67,5.63-.35,16.54-3.32,25.15-3.32,3.97,0,7.61.67,9.6,2.65,8.61,6.94,18.2,8.61,22.52,16.89.65,1.64,1.32,3.3,1.32,4.96,0,3.97-1.66,8.93-4.96,16.87.65.35,1.32.35,1.98.35,2.65,0,4.64-1.66,6.28-2.65-4.61,10.59-14.56,18.85-28.12,20.86-1.66,6.6-1.66,7.94-25.47,15.55M169.4,149.58c.32.67.67,1.34.99,1.98-.67,4.31-1.32,7.96-2.33,11.58-1.64,5.31-2.63,10.59-2.63,15.9,0,1.66,0,3.65.32,5.28.99-.65,1.98-1.32,2.98-2.31.99-.67,1.99-1.32,2.98-1.98-.32,3.65-1.32,6.62-2.31,9.27-.27.6-.5,1.21-.71,1.83-2.21-1.45-5.5-3.54-10.18-6.46-4.29-3.65-27.13-14.24-53.6-22.52,9.25-1.32,18.53-5.63,27.13-9.6,17.88-8.02,31.52-20.17,40.17-34.11,1.54-.31,2.5-.67,3.46-1.63.99-.99,1.66-1.98,2.33-3.3l.65-.67c-.99,12.25-4.96,23.49-11.24,33.43.99.99,1.66,2.31,1.99,3.3M317.28,178.37l4.96,3.97c-1.32,7.29-2.63,15.23-2.63,22.84,0,.68,0,1.36.02,2.05-3.55-3.24-50.03-38.85-55.58-43.74-5.63-4.64-11.58-9.27-17.53-13.57-5.95-4.32-10.27-7.61-12.9-9.6,20.14-21.48,42.26-50.84,65.7-87.8,15.81-.93,33.94-1.48,52.07-1.9-16.22,41.04-28.47,84.07-34.1,127.75"/>
      <path class="cls-1" d="M500.07,12.98v-1.16c0-.73-.09-1.26-.24-1.55-.17-.31-.47-.56-.93-.8.51-.34.84-.65.99-.94.2-.38.29-.83.29-1.35,0-.61-.13-1.15-.4-1.61-.28-.44-.65-.77-1.08-.99-.44-.19-1.16-.29-2.17-.29h-4.31v10.32h1.63v-4.31h2.59c.64,0,1.07.05,1.3.14.2.09.38.22.49.4.12.19.2.52.23.99l.08,1.28c.04.59.12,1.09.25,1.51h1.82l-.18-.27c-.24-.36-.35-.82-.35-1.37M497.95,8.58c-.27.18-.8.26-1.57.26h-2.53v-3.07h2.63c.8,0,1.36.12,1.64.37.28.25.43.62.43,1.15,0,.6-.21,1.04-.6,1.28"/>
      <path class="cls-1" d="M500.67,1.27C499.19.42,497.62,0,495.92,0s-3.3.42-4.77,1.28c-1.48.84-2.64,2.02-3.49,3.51-.85,1.48-1.28,3.08-1.28,4.79s.43,3.26,1.28,4.74c.85,1.47,2.02,2.63,3.5,3.48,1.48.85,3.06,1.28,4.76,1.28s3.27-.43,4.75-1.29c1.48-.86,2.64-2.02,3.5-3.48.85-1.47,1.27-3.07,1.27-4.78s-.44-3.26-1.28-4.76c-.86-1.48-2.02-2.65-3.49-3.5M502.65,13.45c-.7,1.2-1.63,2.14-2.85,2.84-1.21.7-2.49,1.06-3.87,1.06s-2.68-.36-3.9-1.04c-1.21-.71-2.18-1.66-2.87-2.86-.69-1.21-1.03-2.49-1.03-3.9s.34-2.7,1.03-3.9c.69-1.22,1.65-2.18,2.87-2.89,1.23-.7,2.51-1.03,3.9-1.03s2.67.34,3.87,1.03c1.18.71,2.15,1.67,2.85,2.89.69,1.2,1.04,2.5,1.04,3.88s-.36,2.72-1.04,3.92"/>
    </g>
  </g>
</svg>